<?xml version="1.0" standalone="no"?>
<!DOCTYPE svg PUBLIC "-//W3C//DTD SVG 20010904//EN"
 "http://www.w3.org/TR/2001/REC-SVG-20010904/DTD/svg10.dtd">
<svg version="1.0" xmlns="http://www.w3.org/2000/svg"
 width="1024.000000pt" height="1024.000000pt" viewBox="0 0 1024.000000 1024.000000"
 preserveAspectRatio="xMidYMid meet">

<g transform="translate(0.000000,1024.000000) scale(0.100000,-0.100000)"
fill="#000000" stroke="none">
<path d="M1996 8485 c-22 -8 -50 -25 -63 -38 -13 -13 -58 -104 -99 -203 -42
-98 -148 -352 -237 -564 l-162 -385 -3 -250 c-2 -140 1 -291 8 -344 20 -175
99 -358 209 -482 l41 -47 0 -1468 0 -1469 -124 -5 c-115 -5 -127 -7 -150 -29
-58 -55 -56 -139 5 -197 l30 -29 1843 -5 1842 -5 32 -36 c43 -49 88 -66 226
-87 l119 -17 37 -90 38 -89 -79 -87 c-97 -109 -113 -139 -113 -209 1 -86 29
-127 213 -313 193 -195 236 -223 327 -214 68 7 109 32 204 123 l76 73 102 -42
c77 -31 104 -46 106 -62 3 -11 9 -63 14 -116 11 -104 31 -156 79 -201 57 -54
80 -58 360 -58 284 0 306 4 366 66 46 46 57 78 73 202 9 64 19 120 22 124 4 3
48 21 98 40 l91 34 76 -72 c94 -91 138 -114 213 -114 90 0 123 22 312 213 187
189 211 226 212 315 0 74 -16 104 -109 208 l-81 92 41 90 41 89 91 13 c153 20
182 29 226 67 80 68 82 77 79 382 l-3 268 -27 41 c-45 67 -97 91 -240 109 -68
8 -126 18 -129 22 -3 3 -18 40 -34 81 -15 41 -32 80 -37 87 -7 8 14 38 67 98
87 98 114 150 115 216 0 81 -34 129 -232 326 -167 165 -188 182 -238 197 -96
29 -161 4 -278 -108 l-77 -74 -45 18 -45 18 -3 787 -2 787 51 56 c116 127 192
310 210 506 6 61 9 215 7 341 l-3 230 -121 285 c-67 157 -172 404 -234 550
-61 146 -121 280 -132 299 -12 19 -39 41 -62 52 -40 18 -126 19 -2571 18
-2139 0 -2536 -2 -2569 -14z m5171 -658 c95 -221 175 -409 178 -418 5 -14
-237 -16 -2782 -22 -1533 -3 -2789 -4 -2791 -2 -1 1 67 171 151 376 85 206
162 395 172 422 l18 47 2441 0 2441 0 172 -403z m-2732 -1142 c-25 -124 -75
-216 -170 -310 -63 -64 -98 -89 -165 -122 -110 -53 -173 -68 -295 -67 -269 0
-504 165 -592 414 -25 71 -27 88 -31 297 l-4 223 634 2 633 3 3 -180 c2 -134
-1 -200 -13 -260z m-1505 248 c0 -223 -12 -293 -71 -412 -51 -103 -152 -209
-246 -259 -177 -94 -435 -96 -606 -5 -29 15 -89 64 -134 109 -64 63 -91 98
-118 155 -53 112 -65 185 -65 407 l0 192 620 0 620 0 0 -187z m3017 -10 c-6
-230 -14 -278 -69 -393 -81 -170 -255 -302 -443 -335 -104 -19 -159 -18 -253
1 -211 43 -376 190 -448 399 -27 76 -28 91 -32 303 l-4 222 627 0 628 0 -6
-197z m1483 -5 c0 -306 -30 -398 -175 -544 -128 -129 -262 -186 -440 -187
-239 -2 -453 127 -554 333 -59 120 -71 190 -71 413 l0 187 620 0 620 0 0 -202z
m-4297 -673 c350 -440 1029 -432 1380 15 l61 78 39 -57 c160 -231 410 -361
697 -361 177 0 304 35 454 124 84 50 209 166 261 241 21 30 40 55 41 55 2 0
19 -25 40 -55 50 -76 178 -192 269 -244 136 -78 292 -120 446 -121 83 0 223
24 292 50 28 11 53 20 55 20 1 0 2 -223 2 -495 0 -272 -2 -495 -4 -495 -2 0
-23 7 -46 15 -32 11 -89 15 -231 15 l-189 0 0 233 c0 261 -5 284 -71 319 -32
17 -78 18 -830 18 l-796 0 -34 -23 c-71 -47 -69 -30 -69 -632 0 -508 1 -542
19 -575 36 -69 60 -75 289 -75 176 0 201 -2 196 -15 -4 -8 -9 -36 -11 -62 -7
-65 27 -131 118 -231 l71 -78 -32 -87 c-18 -48 -35 -90 -39 -94 -3 -4 -59 -14
-123 -22 -133 -17 -181 -37 -227 -93 -44 -53 -51 -88 -51 -245 l0 -138 -310 0
-310 0 0 1125 c0 1220 3 1162 -55 1215 l-27 25 -946 3 c-908 2 -948 1 -982
-16 -19 -11 -45 -37 -57 -58 l-23 -39 0 -1127 0 -1128 -225 0 -225 0 0 1380
c0 759 1 1380 3 1380 1 0 30 -10 62 -21 244 -86 519 -56 752 83 71 42 209 176
254 246 l34 54 15 -23 c8 -13 37 -51 63 -84z m187 -1960 l0 -1055 -330 2 -330
3 0 1048 c0 576 0 1049 0 1052 0 3 149 5 330 5 l330 0 0 -1055z m910 0 l0
-1055 -325 0 -325 0 0 1055 0 1055 325 0 325 0 0 -1055z m1450 687 c0 -359 -1
-369 -20 -387 -19 -17 -42 -19 -260 -19 l-240 -1 0 388 0 387 260 0 260 0 0
-368z m756 51 c-6 -353 -10 -402 -35 -410 -9 -3 -51 -21 -94 -39 -43 -19 -82
-34 -87 -34 -5 0 -50 38 -100 85 -64 60 -105 89 -140 102 l-50 18 0 297 0 298
256 0 256 0 -6 -317z m633 -265 c5 -13 16 -68 25 -123 30 -181 35 -187 187
-244 58 -21 126 -52 150 -67 32 -21 57 -29 89 -29 53 0 89 23 207 135 l76 72
148 -148 c115 -114 146 -151 139 -163 -5 -9 -49 -62 -99 -119 -85 -96 -91
-106 -91 -147 0 -30 11 -64 34 -110 19 -36 51 -110 71 -163 20 -53 46 -107 57
-119 25 -27 43 -32 203 -52 l130 -16 3 -188 c1 -103 -1 -187 -5 -187 -34 0
-254 -32 -279 -40 -46 -15 -68 -44 -113 -149 -22 -52 -57 -122 -78 -155 -63
-102 -55 -127 81 -285 107 -124 112 -100 -52 -264 l-142 -142 -82 82 c-97 95
-150 133 -188 133 -15 0 -63 -18 -106 -39 -44 -22 -113 -52 -154 -66 -95 -34
-137 -60 -155 -95 -12 -23 -55 -246 -55 -284 0 -4 -30 -6 -67 -2 -38 3 -128 6
-200 6 l-133 0 0 33 c0 59 -37 244 -55 270 -17 26 -77 59 -130 71 -16 4 -82
32 -147 62 -151 72 -156 71 -306 -66 l-109 -99 -142 144 c-153 154 -153 153
-101 200 12 11 53 58 90 105 93 117 94 128 30 260 -29 58 -61 129 -72 158 -26
70 -61 109 -108 122 -28 8 -244 40 -267 40 -2 0 -3 85 -3 188 l0 188 118 12
c211 22 232 36 276 177 15 49 43 122 62 163 36 78 41 110 23 145 -7 11 -54 68
-105 126 -52 58 -94 112 -94 119 0 6 62 75 138 153 l137 141 95 -87 c169 -156
192 -163 318 -97 43 22 110 51 150 66 163 58 159 52 193 309 l11 87 194 0
c193 0 195 0 203 -22z"/>
<path d="M3906 4330 c-97 -30 -123 -158 -45 -224 59 -50 166 -29 197 39 48
104 -45 217 -152 185z"/>
<path d="M6745 4006 c-240 -47 -445 -208 -545 -430 -46 -100 -63 -186 -63
-311 0 -98 3 -120 32 -205 54 -160 156 -302 274 -382 290 -197 645 -182 910
38 215 178 315 509 231 767 -41 128 -85 198 -189 303 -83 83 -116 108 -190
146 -49 26 -119 54 -154 63 -89 23 -221 27 -306 11z m260 -261 c250 -66 405
-329 340 -580 -64 -243 -300 -404 -540 -367 -141 22 -255 92 -331 203 -153
224 -94 538 128 680 116 75 268 99 403 64z"/>
</g>
</svg>
